<svg xmlns="http://www.w3.org/2000/svg" viewBox="0 0 84.25 25.35"><path d="M12.68,0A12.68,12.68,0,1,0,25.35,12.68,12.69,12.69,0,0,0,12.68,0Zm0,23A10.31,10.31,0,1,1,23,12.68,10.32,10.32,0,0,1,12.68,23Z"/><circle cx="17.02" cy="12.63" r="2.85"/><path d="M45.2,15h0l-2.69-7H39.8l4.14,9.64-.48,1.22q-.16.38-.3.66a1.92,1.92,0,0,1-.32.47,1.07,1.07,0,0,1-.44.28,2,2,0,0,1-.64.09l-.43,0a2.6,2.6,0,0,1-.47-.11l-.2,2.09a4.2,4.2,0,0,0,.63.11,5.92,5.92,0,0,0,.61,0,4.59,4.59,0,0,0,1.38-.18,2.89,2.89,0,0,0,1-.53,3.29,3.29,0,0,0,.72-.86,8.58,8.58,0,0,0,.56-1.17L50.1,7.94H47.59Z"/><path d="M53.6,9.71a2.35,2.35,0,0,1,1.06-.24,2.48,2.48,0,0,1,1.23.31,2.76,2.76,0,0,1,.88.73l1.57-1.39A3.43,3.43,0,0,0,56.77,8a5.91,5.91,0,0,0-2-.36,5.44,5.44,0,0,0-1.41.18,3.89,3.89,0,0,0-1.23.55,2.85,2.85,0,0,0-.87,1,2.77,2.77,0,0,0-.33,1.39,2.46,2.46,0,0,0,.24,1.14,2.31,2.31,0,0,0,.64.77,3.45,3.45,0,0,0,.91.5,8.06,8.06,0,0,0,1.05.31A8.83,8.83,0,0,1,55.4,14a.89.89,0,0,1,.55.86,1,1,0,0,1-.14.54,1.06,1.06,0,0,1-.37.35,1.82,1.82,0,0,1-.5.19,2.4,2.4,0,0,1-.53.06A3,3,0,0,1,53,15.66a3.15,3.15,0,0,1-1-.86l-1.59,1.49a4.61,4.61,0,0,0,1.77,1.17,6,6,0,0,0,2.19.41,6.64,6.64,0,0,0,1.52-.17,3.74,3.74,0,0,0,1.29-.55,2.83,2.83,0,0,0,.88-1,3.11,3.11,0,0,0,.33-1.5A2.38,2.38,0,0,0,58,13.46a2.62,2.62,0,0,0-.73-.82,4,4,0,0,0-1-.53,8.78,8.78,0,0,0-1.09-.32,9.81,9.81,0,0,1-1.56-.47.81.81,0,0,1-.53-.79A.83.83,0,0,1,53.6,9.71Z"/><path d="M63.51,5.15H61.14V7.94H59.45V9.87h1.69v4.5a6.24,6.24,0,0,0,.13,1.32,2.73,2.73,0,0,0,.48,1.09,2.4,2.4,0,0,0,1,.74,3.87,3.87,0,0,0,1.57.27,5.25,5.25,0,0,0,.84-.07,4.08,4.08,0,0,0,.76-.19l-.08-1.89a2.11,2.11,0,0,1-.5.15,2.91,2.91,0,0,1-.52,0c-.53,0-.88-.14-1-.42a2.19,2.19,0,0,1-.23-1.06V9.87h2.41V7.94H63.51Z"/><path d="M75.33,9a4,4,0,0,0-1.48-1A5.09,5.09,0,0,0,72,7.66,5.41,5.41,0,0,0,70,8a4.73,4.73,0,0,0-2.69,2.67,5.55,5.55,0,0,0-.39,2.12,5.43,5.43,0,0,0,.39,2.12,4.46,4.46,0,0,0,1.08,1.58,4.88,4.88,0,0,0,1.64,1,5.93,5.93,0,0,0,2.07.35,4.83,4.83,0,0,0,4.14-1.93l-1.61-1.29a2.87,2.87,0,0,1-1,.91,3.22,3.22,0,0,1-1.53.33,2.84,2.84,0,0,1-1-.18,3,3,0,0,1-.86-.49,2.46,2.46,0,0,1-.61-.74,2.38,2.38,0,0,1-.27-1h7.33a2.72,2.72,0,0,0,0-.32v-.32a6.72,6.72,0,0,0-.35-2.28A4.56,4.56,0,0,0,75.33,9Zm-6,2.82a2.37,2.37,0,0,1,.83-1.68A2.71,2.71,0,0,1,72,9.47a2.48,2.48,0,0,1,1,.19,2,2,0,0,1,.71.51,2,2,0,0,1,.41.74,3,3,0,0,1,.13.88Z"/><path d="M84,7.74h-.3A2.81,2.81,0,0,0,82,8.26a3.5,3.5,0,0,0-1.12,1.37h0V8H78.51v9.64h2.41V12.49a3.33,3.33,0,0,1,.1-.7,2.58,2.58,0,0,1,.38-.86,2.44,2.44,0,0,1,.78-.72,2.56,2.56,0,0,1,1.33-.3l.33,0,.41.08V7.79A1.13,1.13,0,0,0,84,7.74Z"/><path d="M33.57,7.45a5.24,5.24,0,1,0,5.24,5.24A5.24,5.24,0,0,0,33.57,7.45Zm0,8.23a3,3,0,1,1,3-3A3,3,0,0,1,33.57,15.68Z"/></svg>
