<svg xmlns="http://www.w3.org/2000/svg" viewBox="0 0 18.84 18.95"><path d="M16.78,10.11v-8a.5.5,0,0,0-.5-.5h-3V.5a.5.5,0,0,0-1,0V1.6H10.34V.5a.5.5,0,1,0-1,0V1.6H7.39V.5a.5.5,0,0,0-1,0V1.6H4.44V.5a.5.5,0,0,0-1,0V1.6H.5a.5.5,0,0,0-.5.5V16.95a.5.5,0,0,0,.5.5h10a4.86,4.86,0,1,0,6.31-7.33ZM1,2.6H3.44v1.1a.5.5,0,0,0,1,0V2.6H6.39v1.1a.5.5,0,0,0,1,0V2.6H9.34v1.1a.5.5,0,1,0,1,0V2.6h1.95v1.1a.5.5,0,0,0,1,0V2.6h2.5V6.3H1ZM1,16.45V7.3H15.78V9.57a4.84,4.84,0,0,0-6,6.88ZM14,18a3.87,3.87,0,1,1,3.87-3.87A3.87,3.87,0,0,1,14,18Z"/><path d="M16,13.58h-1.5V12.09a.5.5,0,0,0-1,0v2a.5.5,0,0,0,.5.5h2a.5.5,0,1,0,0-1Z"/></svg>
