<svg xmlns="http://www.w3.org/2000/svg" viewBox="0 0 12.43 16.98"><path d="M11.93,2.17H.5a.5.5,0,0,0-.5.5V6a.5.5,0,0,0,.5.5H.69v10a.5.5,0,0,0,.5.5H11.24a.5.5,0,0,0,.5-.5v-10h.19a.5.5,0,0,0,.5-.5V2.67A.5.5,0,0,0,11.93,2.17ZM1,3.17H11.43V5.45H1ZM10.74,16H1.69V6.45h9.05Z"/><path d="M3.57,14.71a.5.5,0,0,0,.5-.5v-6a.5.5,0,0,0-1,0v6A.5.5,0,0,0,3.57,14.71Z"/><path d="M6.21,14.71a.5.5,0,0,0,.5-.5v-6a.5.5,0,0,0-1,0v6A.5.5,0,0,0,6.21,14.71Z"/><path d="M8.86,14.71a.5.5,0,0,0,.5-.5v-6a.5.5,0,0,0-1,0v6A.5.5,0,0,0,8.86,14.71Z"/><path d="M4,1H8.42a.5.5,0,0,0,0-1H4A.5.5,0,0,0,4,1Z"/></svg>
