<svg xmlns="http://www.w3.org/2000/svg" viewBox="0 0 20.17 10.68"><path d="M10.41,3.16a3.76,3.76,0,0,0-3.33,2A3.77,3.77,0,0,0,1.5,3.91V.74A.75.75,0,0,0,0,.74V7H0a3.76,3.76,0,0,0,7.09,1.7,3.76,3.76,0,1,0,3.33-5.53Zm-6.65,6A2.26,2.26,0,1,1,6,6.92,2.26,2.26,0,0,1,3.76,9.17Zm6.65,0a2.26,2.26,0,1,1,2.26-2.25A2.26,2.26,0,0,1,10.41,9.17Z"/><path d="M18,6.91,20,4.4a.71.71,0,0,0-.17-1,.87.87,0,0,0-1.14.14h0L16.94,5.66,15.18,3.5h0A.87.87,0,0,0,14,3.36a.71.71,0,0,0-.17,1h0l2,2.51-2,2.51h0a.71.71,0,0,0,.17,1,.87.87,0,0,0,1.14-.14l1.76-2.16,1.76,2.16a.87.87,0,0,0,1.14.14.71.71,0,0,0,.17-1Z"/></svg>
