<svg xmlns="http://www.w3.org/2000/svg" viewBox="0 0 30 30"><path d="M15,0A15,15,0,1,0,30,15,15,15,0,0,0,15,0Zm0,29A14,14,0,1,1,29,15,14,14,0,0,1,15,29Z"/><path d="M24.4,14.91a.5.5,0,0,0-.5.5,8.9,8.9,0,1,1-17.8,0,.5.5,0,0,0-1,0,9.9,9.9,0,1,0,19.8,0A.5.5,0,0,0,24.4,14.91Z"/><path d="M8.66,11a.5.5,0,0,0,.5-.5,1.78,1.78,0,1,1,3.56,0,.5.5,0,0,0,1,0,2.78,2.78,0,1,0-5.56,0A.5.5,0,0,0,8.66,11Z"/><path d="M16.43,11a.5.5,0,0,0,.5-.5,1.78,1.78,0,1,1,3.56,0,.5.5,0,0,0,1,0,2.78,2.78,0,1,0-5.56,0A.5.5,0,0,0,16.43,11Z"/></svg>
