<svg xmlns="http://www.w3.org/2000/svg" viewBox="0 0 20.48 20.46"><path d="M.23,10.59a.25.25,0,0,0-.23.27,10.3,10.3,0,0,0,.33,2,.25.25,0,0,0,.24.19H.64a.25.25,0,0,0,.18-.31A9.76,9.76,0,0,1,.5,10.83.25.25,0,0,0,.23,10.59Z"/><path d="M3.83,2.21A10.25,10.25,0,0,0,2.37,3.64.25.25,0,1,0,2.75,4,9.85,9.85,0,0,1,4.14,2.6a.25.25,0,1,0-.31-.39Z"/><path d="M1.88,15.25a.25.25,0,0,0-.43.26,10.4,10.4,0,0,0,1.23,1.64A.25.25,0,1,0,3,16.81,9.89,9.89,0,0,1,1.88,15.25Z"/><path d="M.86,6.06A10.2,10.2,0,0,0,.22,8a.25.25,0,0,0,.19.3H.46a.25.25,0,0,0,.24-.2,9.67,9.67,0,0,1,.61-1.85.25.25,0,1,0-.46-.2Z"/><path d="M6.39,1.23l.1,0A9.75,9.75,0,0,1,8.35.64a.25.25,0,0,0,.2-.29.25.25,0,0,0-.29-.2,10.15,10.15,0,0,0-2,.59.25.25,0,0,0,.1.48Z"/><path d="M11.06.5A9.79,9.79,0,0,1,13,.86H13a.25.25,0,0,0,.07-.49,10.34,10.34,0,0,0-2-.37.25.25,0,0,0,0,.5Z"/><path d="M20.47,9.75a.24.24,0,0,0-.26-.24.25.25,0,0,0-.24.26c0,.15,0,.3,0,.45a9.83,9.83,0,0,1-.19,1.94.25.25,0,0,0,.2.29h0a.25.25,0,0,0,.24-.2,10.32,10.32,0,0,0,.2-2C20.48,10.06,20.48,9.9,20.47,9.75Z"/><path d="M15.72,1.56a.25.25,0,0,0-.27.42A9.78,9.78,0,0,1,17,3.18a.25.25,0,0,0,.17.07.25.25,0,0,0,.18-.08.25.25,0,0,0,0-.35A10.32,10.32,0,0,0,15.72,1.56Z"/><path d="M18.88,14.72a9.76,9.76,0,0,1-1.07,1.63.25.25,0,1,0,.39.31,10.27,10.27,0,0,0,1.12-1.71.25.25,0,1,0-.44-.23Z"/><path d="M19.94,6.94a10.23,10.23,0,0,0-.85-1.86.25.25,0,0,0-.43.25,9.68,9.68,0,0,1,.8,1.77.25.25,0,0,0,.24.17h.08A.25.25,0,0,0,19.94,6.94Z"/><path d="M11.51,19.88a10,10,0,0,1-1.95.06.24.24,0,0,0-.27.23.25.25,0,0,0,.23.27l.7,0a10.61,10.61,0,0,0,1.34-.09.25.25,0,0,0,.22-.28A.26.26,0,0,0,11.51,19.88Z"/><path d="M6.9,19.38a9.65,9.65,0,0,1-1.75-.84.25.25,0,0,0-.34.08.25.25,0,0,0,.08.34,10.19,10.19,0,0,0,1.84.89h.09a.25.25,0,0,0,.09-.49Z"/><path d="M15.83,18.2a9.65,9.65,0,0,1-1.7,1,.25.25,0,0,0,.1.48l.1,0a10.26,10.26,0,0,0,1.78-1,.25.25,0,0,0-.29-.41Z"/><path d="M5.93,10.53h4v4a.29.29,0,0,0,.59,0v-4h4a.29.29,0,0,0,0-.59h-4v-4a.29.29,0,0,0-.59,0v4h-4a.29.29,0,0,0,0,.59Z"/></svg>
