<svg xmlns="http://www.w3.org/2000/svg" viewBox="0 0 18.9 11.18"><path d="M17.22,7.25a.12.12,0,0,1-.11-.13,2.5,2.5,0,0,0-1.48-2.53,3,3,0,0,0-2.49.08.12.12,0,0,1-.17,0,3.08,3.08,0,0,0-2.63-1.46,4.12,4.12,0,0,0-.92.11c-2.14.49-2.36,2.91-2.36,2.93a.13.13,0,0,1-.12.11c-.1,0-2.45.11-2.45,2.27A2.39,2.39,0,0,0,7,11.18H17.24A1.74,1.74,0,0,0,18.9,9.27,1.93,1.93,0,0,0,17.22,7.25Z"/><path d="M6.43,5.72A3.92,3.92,0,0,1,9.25,2.61a3.57,3.57,0,0,1,4,1.33,2.34,2.34,0,0,1,1.33-.27A4.17,4.17,0,0,0,12,.3,3.93,3.93,0,0,0,7,2.12a3.11,3.11,0,0,0-3,0A3.3,3.3,0,0,0,2.29,5.31,2.51,2.51,0,0,0,0,7.95,2.64,2.64,0,0,0,2.53,10.5H4.24a3.28,3.28,0,0,1-.52-1.82C3.71,6.1,6.43,5.72,6.43,5.72Z"/></svg>
