<svg xmlns="http://www.w3.org/2000/svg" viewBox="0 0 22.3 18.8"><path d="M2.4,14a2.4,2.4,0,1,0,2.4,2.4A2.4,2.4,0,0,0,2.4,14Zm0,3.8a1.4,1.4,0,1,1,1.4-1.4A1.4,1.4,0,0,1,2.4,17.8Z"/><path d="M2.4,0A2.4,2.4,0,1,0,4.8,2.4,2.4,2.4,0,0,0,2.4,0Zm0,3.8A1.4,1.4,0,1,1,3.8,2.4,1.4,1.4,0,0,1,2.4,3.8Z"/><path d="M2.4,7A2.4,2.4,0,1,0,4.8,9.4,2.4,2.4,0,0,0,2.4,7Zm0,3.8A1.4,1.4,0,1,1,3.8,9.4,1.4,1.4,0,0,1,2.4,10.8Z"/><path d="M9.22,2.9H21.8a.5.5,0,0,0,0-1H9.22a.5.5,0,0,0,0,1Z"/><path d="M21.8,15.68H9.22a.5.5,0,0,0,0,1H21.8a.5.5,0,0,0,0-1Z"/><path d="M21.8,8.79H9.22a.5.5,0,0,0,0,1H21.8a.5.5,0,0,0,0-1Z"/></svg>
