<svg xmlns="http://www.w3.org/2000/svg" viewBox="0 0 11 11"><path d="M11,5.5h0A5.49,5.49,0,0,0,2.78.73h0l0,0a5.48,5.48,0,0,0-2,7.46v0l0,0a5.53,5.53,0,0,0,2,2l0,0h0a5.48,5.48,0,0,0,7.48-2l0,0v0A5.46,5.46,0,0,0,11,5.5ZM9.62,7.3,7.72,6.2c0-.07,0-.13.06-.2H9.95A4.47,4.47,0,0,1,9.62,7.3ZM5,3.22l-.2.06L3.7,1.38A4.47,4.47,0,0,1,5,1.05ZM4.16,5.5A1.34,1.34,0,1,1,5.5,6.84,1.34,1.34,0,0,1,4.16,5.5ZM9.95,5H7.78A2.34,2.34,0,0,0,6,3.22V1.05A4.48,4.48,0,0,1,9.95,5ZM2.84,1.89,3.93,3.78A2.26,2.26,0,0,0,3.28,6.2L1.38,7.3A4.45,4.45,0,0,1,2.84,1.89ZM1.89,8.16,3.78,7.07l.15.15L2.84,9.11A4.52,4.52,0,0,1,1.89,8.16ZM5.5,10a4.47,4.47,0,0,1-1.8-.38l1.1-1.9a2.26,2.26,0,0,0,2.42-.65L9.11,8.16A4.48,4.48,0,0,1,5.5,10Z"/></svg>
