<svg xmlns="http://www.w3.org/2000/svg" viewBox="0 0 11 9.91"><path d="M.5,2.15h.8a1.63,1.63,0,0,0,3.12,0H10.5a.5.5,0,0,0,0-1H4.42a1.63,1.63,0,0,0-3.12,0H.5a.5.5,0,0,0,0,1ZM2.86,1a.65.65,0,1,1-.65.65A.65.65,0,0,1,2.86,1Z"/><path d="M10.5,7.76H4.42a1.63,1.63,0,0,0-3.12,0H.5a.5.5,0,0,0,0,1h.8a1.63,1.63,0,0,0,3.12,0H10.5a.5.5,0,0,0,0-1ZM2.86,8.91a.65.65,0,1,1,.65-.65A.65.65,0,0,1,2.86,8.91Z"/><path d="M10.5,4.45H9.27a1.64,1.64,0,0,0-3.08,0H.5a.5.5,0,0,0,0,1H6.15a1.64,1.64,0,0,0,3.16,0H10.5a.5.5,0,0,0,0-1ZM7.73,5.66A.64.64,0,1,1,8.37,5,.65.65,0,0,1,7.73,5.66Z"/></svg>
