<svg xmlns="http://www.w3.org/2000/svg" viewBox="0 0 35.48 23"><path d="M9.39,6.19l2.33-2.33A.5.5,0,0,0,11,3.16L8.68,5.48a.5.5,0,1,0,.71.71Z"/><path d="M15.11,3.29,8.85,9.55a.5.5,0,1,0,.71.71L15.82,4a.5.5,0,0,0-.71-.71Z"/><path d="M35,17.73H31.83V.5a.5.5,0,0,0-.5-.5H4.14a.5.5,0,0,0-.5.5V17.73H.5a.5.5,0,0,0-.5.5V22.5a.5.5,0,0,0,.5.5H35a.5.5,0,0,0,.5-.5V18.23A.5.5,0,0,0,35,17.73ZM4.64,1H30.83V17.73H19.39a.5.5,0,0,0-.5.44,1,1,0,0,1-2.08,0,.5.5,0,0,0-.5-.44H4.64ZM34.48,22H1V18.73H15.92a2,2,0,0,0,3.87,0H34.48Z"/></svg>
