<svg xmlns="http://www.w3.org/2000/svg" viewBox="0 0 30.5 30.43"><path d="M3.52,5.89a.25.25,0,0,0-.35,0A15.27,15.27,0,0,0,2,7.62a.25.25,0,1,0,.43.25,14.75,14.75,0,0,1,1.1-1.63A.25.25,0,0,0,3.52,5.89Z"/><path d="M3.74,24.48a.25.25,0,1,0-.39.31,15.32,15.32,0,0,0,1.37,1.5.25.25,0,0,0,.17.07.25.25,0,0,0,.17-.43A14.68,14.68,0,0,1,3.74,24.48Z"/><path d="M1.35,20.21a.25.25,0,1,0-.47.17,15.05,15.05,0,0,0,.81,1.86.25.25,0,0,0,.22.14.24.24,0,0,0,.11,0A.25.25,0,0,0,2.14,22,14.78,14.78,0,0,1,1.35,20.21Z"/><path d="M7.23,2.57a.25.25,0,0,0-.35-.07A15.27,15.27,0,0,0,5.26,3.72a.25.25,0,1,0,.33.38A14.91,14.91,0,0,1,7.15,2.92.25.25,0,0,0,7.23,2.57Z"/><path d="M7.39,27.73a.25.25,0,0,0-.27.42,15.39,15.39,0,0,0,1.79,1l.1,0a.25.25,0,0,0,.1-.48A14.76,14.76,0,0,1,7.39,27.73Z"/><path d="M14.54.52a15.42,15.42,0,0,1,2,0h0a.25.25,0,0,0,0-.5,16.07,16.07,0,0,0-2,0,.25.25,0,0,0-.24.26A.25.25,0,0,0,14.54.52Z"/><path d="M19.4,1.09a14.4,14.4,0,0,1,1.84.68l.1,0a.25.25,0,0,0,.1-.48,15.07,15.07,0,0,0-1.91-.7.25.25,0,0,0-.14.48Z"/><path d="M1.1,10.24a.25.25,0,0,0-.32.16,15.19,15.19,0,0,0-.52,2,.25.25,0,0,0,.2.29h0a.25.25,0,0,0,.25-.2,14.63,14.63,0,0,1,.5-1.9A.25.25,0,0,0,1.1,10.24Z"/><path d="M9.67,1.57l.09,0A14.66,14.66,0,0,1,11.63.95a.25.25,0,0,0,.18-.3.25.25,0,0,0-.3-.18,15.11,15.11,0,0,0-1.93.63.25.25,0,0,0,.09.48Z"/><path d="M.25,15.14A.25.25,0,0,0,0,15.4a15.43,15.43,0,0,0,.15,2,.25.25,0,0,0,.25.21h0a.25.25,0,0,0,.21-.28,14.94,14.94,0,0,1-.15-2A.23.23,0,0,0,.25,15.14Z"/><path d="M26.84,24.37a14.7,14.7,0,0,1-1.32,1.46.25.25,0,0,0,0,.35.25.25,0,0,0,.18.08.25.25,0,0,0,.17-.07,15.29,15.29,0,0,0,1.36-1.51.25.25,0,1,0-.39-.31Z"/><path d="M29.51,19.92a.25.25,0,0,0-.32.15,14.8,14.8,0,0,1-.77,1.81.25.25,0,0,0,.11.34l.11,0a.25.25,0,0,0,.22-.14,15.27,15.27,0,0,0,.79-1.87A.25.25,0,0,0,29.51,19.92Z"/><path d="M28.63,8.47a.25.25,0,0,0,.1-.34A15.44,15.44,0,0,0,27.67,6.4a.25.25,0,0,0-.35-.06.25.25,0,0,0-.06.35,14.63,14.63,0,0,1,1,1.67.25.25,0,0,0,.22.13A.24.24,0,0,0,28.63,8.47Z"/><path d="M30.25,15a.25.25,0,0,0-.25.25,14.94,14.94,0,0,1-.13,2,.25.25,0,0,0,.22.28h0a.25.25,0,0,0,.25-.22,15.53,15.53,0,0,0,.13-2A.25.25,0,0,0,30.25,15Z"/><path d="M30.08,13.22h0a.25.25,0,0,0,.21-.29,15.11,15.11,0,0,0-.44-2,.25.25,0,1,0-.48.14A14.79,14.79,0,0,1,29.83,13,.25.25,0,0,0,30.08,13.22Z"/><path d="M13.85,29.93a14.91,14.91,0,0,1-1.94-.31.25.25,0,1,0-.11.49,15.23,15.23,0,0,0,2,.33h0a.25.25,0,0,0,0-.5Z"/><path d="M18.73,29.59a14.45,14.45,0,0,1-1.94.33.25.25,0,0,0,0,.5h0a15,15,0,0,0,2-.34.25.25,0,0,0-.12-.49Z"/><path d="M25.68,4.47a.25.25,0,0,0,0-.35A15.22,15.22,0,0,0,24.1,2.83a.25.25,0,1,0-.29.41,14.75,14.75,0,0,1,1.52,1.25.25.25,0,0,0,.35,0Z"/><path d="M23.22,27.66a14.75,14.75,0,0,1-1.72,1,.25.25,0,0,0,.11.48l.11,0a15.38,15.38,0,0,0,1.78-1,.25.25,0,1,0-.27-.42Z"/><path d="M22.58,15.72a.5.5,0,0,0,0-1H15.75V7.88a.5.5,0,0,0-1,0v6.83H7.92a.5.5,0,0,0,0,1h6.83v6.83a.5.5,0,1,0,1,0V15.72Z"/></svg>
